<?xml version="1.0"?>
<svg xmlns="http://www.w3.org/2000/svg" xmlns:xlink="http://www.w3.org/1999/xlink" xmlns:svgjs="http://svgjs.com/svgjs" version="1.1" width="512" height="512" x="0" y="0" viewBox="0 0 511 511.99275" style="user-select: auto;" xml:space="preserve" class=""><g style="user-select: auto;"><path xmlns="http://www.w3.org/2000/svg" d="m159.296875 326.007812c1.464844 1.464844 3.386719 2.199219 5.304687 2.199219 1.917969 0 3.839844-.734375 5.304688-2.199219l156.601562-156.601562c2.929688-2.929688 2.929688-7.675781 0-10.605469l-156.601562-156.605469c-2.929688-2.925781-7.679688-2.925781-10.609375 0l-156.601563 156.605469c-2.929687 2.925781-2.929687 7.675781 0 10.605469zm5.304687-307.902343 145.996094 145.996093-145.996094 145.996094-145.996093-145.996094zm0 0" fill="#daa520" data-original="#000000" style="user-select: auto;" class=""/><path xmlns="http://www.w3.org/2000/svg" d="m301.328125 225.519531c-2.925781-2.929687-7.675781-2.929687-10.605469 0-2.929687 2.929688-2.929687 7.675781 0 10.605469l19.875 19.875-145.996094 145.996094-145.996093-145.996094 20.140625-20.140625c2.929687-2.929687 2.929687-7.679687 0-10.609375-2.925782-2.925781-7.675782-2.925781-10.605469 0l-25.445313 25.445312c-1.40625 1.410157-2.195312 3.316407-2.195312 5.304688s.789062 3.898438 2.195312 5.304688l156.601563 156.601562c1.464844 1.464844 3.386719 2.195312 5.304687 2.195312 1.921876 0 3.839844-.730468 5.304688-2.195312l156.601562-156.601562c2.929688-2.929688 2.929688-7.679688 0-10.609376zm0 0" fill="#daa520" data-original="#000000" style="user-select: auto;" class=""/><path xmlns="http://www.w3.org/2000/svg" d="m249.753906 195.15625c1.464844 1.464844 3.386719 2.195312 5.304688 2.195312 1.917968 0 3.839844-.730468 5.304687-2.195312 2.925781-2.929688 2.925781-7.675781 0-10.605469l-90.457031-90.457031c-2.929688-2.929688-7.679688-2.929688-10.609375 0l-90.21875 90.21875c-2.929687 2.929688-2.929687 7.675781 0 10.605469 2.929687 2.929687 7.675781 2.929687 10.605469 0l84.917968-84.914063zm0 0" fill="#daa520" data-original="#000000" style="user-select: auto;" class=""/><path xmlns="http://www.w3.org/2000/svg" d="m203.148438 240.449219c1.464843 1.464843 3.382812 2.195312 5.304687 2.195312 1.917969 0 3.839844-.730469 5.304687-2.195312 2.925782-2.929688 2.925782-7.675781 0-10.605469l-43.851562-43.851562c-2.929688-2.929688-7.679688-2.929688-10.609375 0l-43.386719 43.382812c-2.925781 2.929688-2.925781 7.679688 0 10.609375 2.929688 2.925781 7.679688 2.925781 10.609375 0l38.082031-38.082031zm0 0" fill="#daa520" data-original="#000000" style="user-select: auto;" class=""/><path xmlns="http://www.w3.org/2000/svg" d="m75.097656 270.191406-7.257812 7.257813c-2.929688 2.929687-2.929688 7.679687-.003906 10.609375 1.464843 1.464844 3.386718 2.195312 5.304687 2.195312s3.839844-.730468 5.304687-2.195312l7.257813-7.257813c2.929687-2.929687 2.929687-7.679687 0-10.609375-2.929687-2.925781-7.679687-2.929687-10.605469 0zm0 0" fill="#daa520" data-original="#000000" style="user-select: auto;" class=""/><path xmlns="http://www.w3.org/2000/svg" d="m301.589844 317.675781c-2.925782-2.925781-7.675782-2.925781-10.605469 0-2.929687 2.929688-2.929687 7.679688 0 10.609375l19.613281 19.613282-145.996094 145.996093-145.996093-145.996093 20.007812-20.007813c2.929688-2.929687 2.929688-7.679687 0-10.609375-2.929687-2.925781-7.675781-2.925781-10.609375 0l-25.308594 25.3125c-1.40625 1.40625-2.195312 3.3125-2.195312 5.304688 0 1.988281.789062 3.894531 2.195312 5.300781l156.601563 156.601562c1.464844 1.46875 3.386719 2.199219 5.304687 2.199219 1.917969 0 3.839844-.730469 5.304688-2.199219l156.601562-156.601562c2.929688-2.929688 2.929688-7.675781 0-10.605469zm0 0" fill="#daa520" data-original="#000000" style="user-select: auto;" class=""/><path xmlns="http://www.w3.org/2000/svg" d="m243.5 270.195312c-2.929688 2.925782-2.929688 7.675782 0 10.605469l7.257812 7.257813c1.464844 1.464844 3.386719 2.195312 5.304688 2.195312s3.839844-.730468 5.304688-2.195312c2.929687-2.929688 2.929687-7.679688 0-10.605469l-7.257813-7.257813c-2.929687-2.933593-7.679687-2.933593-10.609375 0zm0 0" fill="#daa520" data-original="#000000" style="user-select: auto;" class=""/></g></svg>
